<svg xmlns="http://www.w3.org/2000/svg" xmlns:xlink="http://www.w3.org/1999/xlink" viewBox="0,0,256,256" width="50px" height="50px"><g fill="#808080" fill-rule="nonzero" stroke="none" stroke-width="1" stroke-linecap="butt" stroke-linejoin="miter" stroke-miterlimit="10" stroke-dasharray="" stroke-dashoffset="0" font-family="none" font-weight="none" font-size="none" text-anchor="none" style="mix-blend-mode: normal"><g transform="scale(8,8)"><path d="M8,5c-1.64453,0 -3,1.35547 -3,3v16c0,1.64453 1.35547,3 3,3h16c1.64453,0 3,-1.35547 3,-3v-16c0,-1.64453 -1.35547,-3 -3,-3zM21,8h3v3h-3zM16,12c2.22266,0 4,1.77734 4,4c0,2.22266 -1.77734,4 -4,4c-2.22266,0 -4,-1.77734 -4,-4c0,-2.22266 1.77734,-4 4,-4zM7,14h3.34375c-0.22266,0.625 -0.34375,1.30078 -0.34375,2c0,3.30078 2.69922,6 6,6c3.30078,0 6,-2.69922 6,-6c0,-0.69922 -0.12109,-1.375 -0.34375,-2h3.34375v10c0,0.56641 -0.43359,1 -1,1h-16c-0.56641,0 -1,-0.43359 -1,-1z"></path></g></g></svg>